<svg aria-hidden="true" style="position: absolute; width: 0; height: 0; overflow: hidden;" version="1.1" xmlns="http://www.w3.org/2000/svg" xmlns:xlink="http://www.w3.org/1999/xlink">
<defs>
<symbol id="icon-linkedin" viewBox="0 0 24 24">
<path d="M16 7c-1.933 0-3.684 0.785-4.95 2.050s-2.050 3.017-2.050 4.95v7c0 0.552 0.448 1 1 1h4c0.552 0 1-0.448 1-1v-7c0-0.276 0.111-0.525 0.293-0.707s0.431-0.293 0.707-0.293 0.525 0.111 0.707 0.293 0.293 0.431 0.293 0.707v7c0 0.552 0.448 1 1 1h4c0.552 0 1-0.448 1-1v-7c0-1.933-0.785-3.684-2.050-4.95s-3.017-2.050-4.95-2.050zM16 9c1.381 0 2.63 0.559 3.536 1.464s1.464 2.155 1.464 3.536v6h-2v-6c0-0.828-0.337-1.58-0.879-2.121s-1.293-0.879-2.121-0.879-1.58 0.337-2.121 0.879-0.879 1.293-0.879 2.121v6h-2v-6c0-1.381 0.559-2.63 1.464-3.536s2.155-1.464 3.536-1.464zM2 8c-0.552 0-1 0.448-1 1v12c0 0.552 0.448 1 1 1h4c0.552 0 1-0.448 1-1v-12c0-0.552-0.448-1-1-1zM3 10h2v10h-2zM7 4c0-0.828-0.337-1.58-0.879-2.121s-1.293-0.879-2.121-0.879-1.58 0.337-2.121 0.879-0.879 1.293-0.879 2.121 0.337 1.58 0.879 2.121 1.293 0.879 2.121 0.879 1.58-0.337 2.121-0.879 0.879-1.293 0.879-2.121zM5 4c0 0.276-0.111 0.525-0.293 0.707s-0.431 0.293-0.707 0.293-0.525-0.111-0.707-0.293-0.293-0.431-0.293-0.707 0.111-0.525 0.293-0.707 0.431-0.293 0.707-0.293 0.525 0.111 0.707 0.293 0.293 0.431 0.293 0.707z"></path>
</symbol>
<symbol id="icon-twitter" viewBox="0 0 24 24">
<path d="M20.833 5.262c-0.186 0.242-0.391 0.475-0.616 0.696-0.233 0.232-0.347 0.567-0.278 0.908 0.037 0.182 0.060 0.404 0.061 0.634 0 5.256-2.429 8.971-5.81 10.898-2.647 1.509-5.938 1.955-9.222 1.12 1.245-0.361 2.46-0.921 3.593-1.69 0.147-0.099 0.273-0.243 0.352-0.421 0.224-0.505-0.003-1.096-0.508-1.32-2.774-1.233-4.13-2.931-4.769-4.593-0.417-1.084-0.546-2.198-0.52-3.227 0.021-0.811 0.138-1.56 0.278-2.182 0.394 0.343 0.803 0.706 1.235 1.038 2.051 1.577 4.624 2.479 7.395 2.407 0.543-0.015 0.976-0.457 0.976-1v-1.011c-0.002-0.179 0.009-0.357 0.034-0.533 0.113-0.806 0.504-1.569 1.162-2.141 0.725-0.631 1.636-0.908 2.526-0.846s1.753 0.463 2.384 1.188c0.252 0.286 0.649 0.416 1.033 0.304 0.231-0.067 0.463-0.143 0.695-0.228zM22.424 2.183c-0.74 0.522-1.523 0.926-2.287 1.205-0.931-0.836-2.091-1.302-3.276-1.385-1.398-0.097-2.836 0.339-3.977 1.332-1.036 0.901-1.652 2.108-1.83 3.372-0.037 0.265-0.055 0.532-0.054 0.8-1.922-0.142-3.693-0.85-5.15-1.97-0.775-0.596-1.462-1.309-2.034-2.116-0.32-0.45-0.944-0.557-1.394-0.237-0.154 0.109-0.267 0.253-0.335 0.409 0 0-0.132 0.299-0.285 0.76-0.112 0.337-0.241 0.775-0.357 1.29-0.163 0.722-0.302 1.602-0.326 2.571-0.031 1.227 0.12 2.612 0.652 3.996 0.683 1.775 1.966 3.478 4.147 4.823-1.569 0.726-3.245 1.039-4.873 0.967-0.552-0.024-1.019 0.403-1.043 0.955-0.017 0.389 0.19 0.736 0.513 0.918 4.905 2.725 10.426 2.678 14.666 0.261 4.040-2.301 6.819-6.7 6.819-12.634-0.001-0.167-0.008-0.33-0.023-0.489 1.006-1.115 1.676-2.429 1.996-3.781 0.127-0.537-0.206-1.076-0.743-1.203-0.29-0.069-0.58-0.003-0.807 0.156z"></path>
</symbol>
<symbol id="icon-facebook" viewBox="0 0 24 24">
<path d="M17 3v2h-2c-0.552 0-1.053 0.225-1.414 0.586s-0.586 0.862-0.586 1.414v3c0 0.552 0.448 1 1 1h2.719l-0.5 2h-2.219c-0.552 0-1 0.448-1 1v7h-2v-7c0-0.552-0.448-1-1-1h-2v-2h2c0.552 0 1-0.448 1-1v-3c0-1.105 0.447-2.103 1.172-2.828s1.723-1.172 2.828-1.172zM18 1h-3c-1.657 0-3.158 0.673-4.243 1.757s-1.757 2.586-1.757 4.243v2h-2c-0.552 0-1 0.448-1 1v4c0 0.552 0.448 1 1 1h2v7c0 0.552 0.448 1 1 1h4c0.552 0 1-0.448 1-1v-7h2c0.466 0 0.858-0.319 0.97-0.757l1-4c0.134-0.536-0.192-1.079-0.728-1.213-0.083-0.021-0.167-0.031-0.242-0.030h-3v-2h3c0.552 0 1-0.448 1-1v-4c0-0.552-0.448-1-1-1z"></path>
</symbol>
</defs>
</svg>
